<svg width="20" height="20" viewBox="0 0 20 20" fill="none" xmlns="http://www.w3.org/2000/svg">
<path d="M5.83341 3.33341C5.83341 2.89139 6.00901 2.46746 6.32157 2.1549C6.63413 1.84234 7.05805 1.66675 7.50008 1.66675H12.5001C12.9421 1.66675 13.366 1.84234 13.6786 2.1549C13.9912 2.46746 14.1667 2.89139 14.1667 3.33341V5.00008H17.5001C17.7211 5.00008 17.9331 5.08788 18.0893 5.24416C18.2456 5.40044 18.3334 5.6124 18.3334 5.83341C18.3334 6.05443 18.2456 6.26639 18.0893 6.42267C17.9331 6.57895 17.7211 6.66675 17.5001 6.66675H16.6092L15.8867 16.7851C15.8568 17.2056 15.6687 17.5991 15.3602 17.8864C15.0517 18.1737 14.6458 18.3334 14.2242 18.3334H5.77508C5.35353 18.3334 4.94764 18.1737 4.63915 17.8864C4.33067 17.5991 4.14251 17.2056 4.11258 16.7851L3.39175 6.66675H2.50008C2.27907 6.66675 2.06711 6.57895 1.91083 6.42267C1.75455 6.26639 1.66675 6.05443 1.66675 5.83341C1.66675 5.6124 1.75455 5.40044 1.91083 5.24416C2.06711 5.08788 2.27907 5.00008 2.50008 5.00008H5.83341V3.33341ZM7.50008 5.00008H12.5001V3.33341H7.50008V5.00008ZM5.06175 6.66675L5.77591 16.6667H14.2251L14.9392 6.66675H5.06175ZM8.33341 8.33341C8.55443 8.33341 8.76639 8.42121 8.92267 8.57749C9.07895 8.73377 9.16675 8.94573 9.16675 9.16675V14.1667C9.16675 14.3878 9.07895 14.5997 8.92267 14.756C8.76639 14.9123 8.55443 15.0001 8.33341 15.0001C8.1124 15.0001 7.90044 14.9123 7.74416 14.756C7.58788 14.5997 7.50008 14.3878 7.50008 14.1667V9.16675C7.50008 8.94573 7.58788 8.73377 7.74416 8.57749C7.90044 8.42121 8.1124 8.33341 8.33341 8.33341ZM11.6667 8.33341C11.8878 8.33341 12.0997 8.42121 12.256 8.57749C12.4123 8.73377 12.5001 8.94573 12.5001 9.16675V14.1667C12.5001 14.3878 12.4123 14.5997 12.256 14.756C12.0997 14.9123 11.8878 15.0001 11.6667 15.0001C11.4457 15.0001 11.2338 14.9123 11.0775 14.756C10.9212 14.5997 10.8334 14.3878 10.8334 14.1667V9.16675C10.8334 8.94573 10.9212 8.73377 11.0775 8.57749C11.2338 8.42121 11.4457 8.33341 11.6667 8.33341Z" fill="#F48686"/>
</svg>
